PathFileType	4	(X/Y/Z)	marker_experimental.trc																																																																																																																
DataRate	CameraRate	NumFrames	NumMarkers	Units	OrigDataRate	OrigDataStartFrame	OrigNumFrames																																																																																																												
200	200	7	38	mm	200	226	600																																																																																																												
Frame#	Time	C7			T10			CLAV			STRN			RBAK			LASI			RASI			SACR			LT1			LT2			LT3			LS1			LS2			LS3			LHEE			LTOE			RT1			RT2			RT3			RS1			RS2			RS3			RHEE			RTOE			LKNE			LKNM			LANK			LANM			RKNM			RKNE			RANM			RANK			LAJC			LKJC			RAJC			RKJC			RHJC			LHJC		
		X1	Y1	Z1	X2	Y2	Z2	X3	Y3	Z3	X4	Y4	Z4	X5	Y5	Z5	X6	Y6	Z6	X7	Y7	Z7	X8	Y8	Z8	X9	Y9	Z9	X10	Y10	Z10	X11	Y11	Z11	X12	Y12	Z12	X13	Y13	Z13	X14	Y14	Z14	X15	Y15	Z15	X16	Y16	Z16	X17	Y17	Z17	X18	Y18	Z18	X19	Y19	Z19	X20	Y20	Z20	X21	Y21	Z21	X22	Y22	Z22	X23	Y23	Z23	X24	Y24	Z24	X25	Y25	Z25	X26	Y26	Z26	X27	Y27	Z27	X28	Y28	Z28	X29	Y29	Z29	X30	Y30	Z30	X31	Y31	Z31	X32	Y32	Z32	X33	Y33	Z33	X34	Y34	Z34	X35	Y35	Z35	X36	Y36	Z36	X37	Y37	Z37	X38	Y38	Z38
																																																																																																																			
226	1.125	-400.847473	995.138306	794.672485	-395.030029	821.283325	758.906372	-405.087067	951.875366	909.568726	-404.005585	821.426147	951.59729	-488.599548	939.507019	764.244202	-294.511719	654.139343	893.687073	-508.956146	651.1604	889.733459	-398.362732	699.393616	741.008728	-231.857422	485.692047	881.508423	-226.754227	397.21933	838.657776	-237.989716	411.894012	981.365234	-222.328995	237.231247	862.467651	-209.623734	204.753159	744.929688	-239.03746	141.379135	870.356506	-281.896057	58.747253	713.182251	-275.230438	49.160229	853.01001	-553.971985	488.651611	861.252808	-536.732605	402.093475	822.889343	-560.959351	423.611816	960.348083	-549.215881	253.085983	893.478516	-569.800171	219.340744	776.723328	-536.074951	158.036819	901.473694	-494.893951	57.117485	733.227661	-492.417084	49.535702	875.796631	-235.087189	330.56778	901.847595	-330.480957	306.510162	932.355896	-251.886078	43.645496	755.125061	-319.256989	40.326675	760.692871	-433.303741	320.730316	935.89978	-538.250732	325.434418	912.358765	-455.258728	56.810993	782.714355	-528.011963	44.44265	780.247131	-285.571533	41.986086	757.908966	-282.784073	318.538971	917.101745	-491.635346	50.626822	781.480743	-485.777236	323.082367	924.129272	-477.745129	593.842562	822.380535	-321.615696	596.011425	825.259023
227	1.13	-400.840546	995.14624	794.656067	-394.999481	821.284424	758.885254	-405.062225	951.897705	909.552063	-403.951965	821.447754	951.598267	-488.601929	939.506836	764.251953	-294.473175	654.144165	893.687866	-508.893158	651.164307	889.719727	-398.320312	699.39032	740.993469	-231.862747	485.666382	881.536499	-226.760803	397.180023	838.69397	-238.057175	411.886658	981.393677	-222.378922	237.221191	862.50354	-209.633606	204.74025	744.971436	-239.078903	141.377319	870.379089	-281.887024	58.752735	713.174255	-275.243317	49.162216	853.013489	-553.920471	488.653168	861.236328	-536.683655	402.098938	822.873047	-560.918701	423.618591	960.333557	-549.180969	253.086502	893.458618	-569.78125	219.336288	776.709839	-536.048706	158.034134	901.483459	-494.893311	57.114124	733.224976	-492.405701	49.544224	875.788208	-235.129883	330.563507	901.872131	-330.545319	306.498138	932.319031	-251.884491	43.646309	755.128296	-319.253296	40.325207	760.68512	-433.266876	320.733643	935.859741	-538.205261	325.439087	912.344788	-455.267059	56.799091	782.712708	-528.006836	44.444145	780.249878	-285.568894	41.985758	757.906708	-282.837601	318.530822	917.095581	-491.636948	50.621618	781.481293	-485.736068	323.086365	924.102265	-477.681334	593.849783	822.37322	-321.568054	596.019335	825.262312
228	1.135	-400.833923	995.15387	794.639832	-394.970367	821.286255	758.865173	-405.040161	951.919006	909.53717	-403.901764	821.465393	951.591675	-488.60437	939.50647	764.262146	-294.430176	654.145508	893.679443	-508.833221	651.16748	889.709778	-398.277313	699.388123	740.977783	-231.866455	485.642517	881.567444	-226.761963	397.145416	838.729553	-238.130676	411.881866	981.419434	-222.433624	237.209702	862.544189	-209.644836	204.725647	745.015808	-239.120178	141.376144	870.398743	-281.880981	58.752361	713.168823	-275.259674	49.160263	853.017944	-553.872742	488.657349	861.218933	-536.639343	402.106079	822.855652	-560.873779	423.632233	960.32074	-549.150635	253.093353	893.443115	-569.763855	219.334671	776.694885	-536.020874	158.030716	901.487854	-494.89328	57.110542	733.220825	-492.39563	49.554131	875.779114	-235.17186	330.556091	901.893982	-330.610474	306.486053	932.27832	-251.885513	43.646309	755.130005	-319.257477	40.324722	760.679077	-433.231812	320.739594	935.826477	-538.163757	325.446686	912.329529	-455.269836	56.79034	782.710999	-528.004944	44.446659	780.252075	-285.571495	41.985516	757.904541	-282.891167	318.521072	917.086151	-491.63739	50.618499	781.481537	-485.697785	323.09314	924.078003	-477.624208	593.855299	822.366093	-321.522107	596.023536	825.256318
229	1.14	-400.828003	995.161011	794.622986	-394.942902	821.28894	758.845947	-405.022003	951.942444	909.521179	-403.854767	821.480652	951.578491	-488.607758	939.50647	764.273376	-294.381744	654.143677	893.659729	-508.777008	651.167664	889.704834	-398.234131	699.387634	740.961731	-231.867325	485.62088	881.601379	-226.756546	397.120148	838.761169	-238.20787	411.877808	981.443848	-222.492294	237.197037	862.585815	-209.658798	204.710709	745.052612	-239.160828	141.375244	870.413391	-281.878296	58.739754	713.168518	-275.278229	49.156326	853.021484	-553.827942	488.663788	861.201294	-536.59906	402.113312	822.837646	-560.825745	423.648407	960.309875	-549.125183	253.103897	893.436951	-569.747925	219.335892	776.680725	-535.997253	158.032715	901.480042	-494.894318	57.106514	733.215271	-492.387115	49.563896	875.768433	-235.213303	330.545105	901.911865	-330.674927	306.474121	932.235474	-251.88884	43.645214	755.130554	-319.268738	40.324932	760.674683	-433.202423	320.751526	935.823425	-538.126526	325.455566	912.313965	-455.260742	56.787254	782.706665	-528.006104	44.449417	780.253601	-285.578789	41.985073	757.902619	-282.944115	318.509613	917.07367	-491.633423	50.618336	781.480133	-485.664474	323.103546	924.068695	-477.574504	593.857448	822.359175	-321.477519	596.024224	825.238656
230	1.145	-400.823242	995.167847	794.605042	-394.917145	821.292542	758.827209	-405.007599	951.971375	909.502075	-403.810059	821.494934	951.56073	-488.613037	939.507263	764.284363	-294.327271	654.138855	893.628113	-508.722107	651.168335	889.701965	-398.191559	699.389404	740.945374	-231.865723	485.601013	881.636902	-226.746597	397.104462	838.787231	-238.285614	411.873322	981.468262	-222.553329	237.183792	862.623718	-209.68074	204.696091	745.073303	-239.201599	141.372971	870.422852	-281.877594	58.71656	713.172363	-275.297394	49.153244	853.022705	-553.785217	488.671295	861.184509	-536.56134	402.119141	822.819519	-560.776611	423.66153	960.300232	-549.103455	253.11499	893.438904	-569.735107	219.338501	776.669617	-535.974976	158.041885	901.465088	-494.896851	57.10157	733.20874	-492.379669	49.57206	875.754883	-235.256607	330.530212	901.926208	-330.737183	306.462769	932.191711	-251.894043	43.642895	755.130249	-319.285309	40.325176	760.671448	-433.181152	320.77597	935.876221	-538.092529	325.46347	912.299133	-455.243713	56.785393	782.701721	-528.009399	44.451508	780.254517	-285.589676	41.984036	757.900849	-282.996895	318.49649	917.05896	-491.626556	50.61845	781.478119	-485.636841	323.11972	924.087677	-477.53027	593.859347	822.350735	-321.433526	596.022125	825.209288
231	1.15	-400.820007	995.174988	794.585632	-394.893127	821.297363	758.808777	-404.995667	952.007935	909.479187	-403.766357	821.509033	951.541138	-488.620483	939.509338	764.293945	-294.266815	654.13147	893.585449	-508.665588	651.174927	889.697327	-398.150543	699.393738	740.928772	-231.862518	485.582581	881.671204	-226.736725	397.095062	838.808594	-238.360977	411.867706	981.493774	-222.614517	237.171036	862.65387	-209.714279	204.686096	745.074768	-239.243164	141.367508	870.42804	-281.876343	58.690739	713.176636	-275.315552	49.153645	853.020996	-553.743652	488.678192	861.169678	-536.524597	402.122406	822.801819	-560.727722	423.667908	960.290894	-549.083801	253.125443	893.443909	-569.726807	219.341385	776.664307	-535.951782	158.049988	901.45697	-494.900818	57.095123	733.202026	-492.371796	49.578156	875.738098	-235.302887	330.513184	901.938354	-330.795319	306.453522	932.1474	-251.900589	43.639481	755.129517	-319.304962	40.324627	760.669189	-433.167969	320.819214	936.003296	-538.059631	325.468384	912.285706	-455.231598	56.776199	782.700439	-528.013733	44.452068	780.254578	-285.602776	41.982054	757.899353	-283.049103	318.483353	917.042877	-491.622666	50.614133	781.477508	-485.6138	323.143799	924.144501	-477.48894	593.865584	822.339091	-321.389537	596.018183	825.169954
232	1.155	-400.818359	995.182922	794.564697	-394.870728	821.303772	758.790405	-404.985077	952.05304	909.452942	-403.722473	821.52301	951.522156	-488.629364	939.512634	764.301392	-294.200958	654.122009	893.533997	-508.606995	651.190613	889.688782	-398.112122	699.400757	740.91217	-231.858429	485.566437	881.700867	-226.732101	397.087708	838.827209	-238.4319	411.860382	981.520447	-222.673096	237.160156	862.673218	-209.75737	204.685989	745.061462	-239.28392	141.358826	870.429749	-281.873444	58.671299	713.178101	-275.331543	49.158573	853.016235	-553.702637	488.683258	861.157898	-536.487915	402.122986	822.785217	-560.679077	423.66748	960.280762	-549.064575	253.135132	893.44873	-569.7229	219.344681	776.666931	-535.929749	158.056107	901.458069	-494.906067	57.086636	733.195557	-492.361633	49.583046	875.718994	-235.350571	330.497803	901.949463	-330.847504	306.448944	932.102478	-251.907837	43.635323	755.128418	-319.325256	40.322411	760.66748	-433.15976	320.882233	936.20282	-538.024719	325.469391	912.274048	-455.234283	56.754707	782.702698	-528.0177	44.4506	780.253845	-285.616547	41.978867	757.897949	-283.099038	318.473373	917.025971	-491.625991	50.602654	781.478272	-485.59224	323.175812	924.238434	-477.449561	593.878541	822.323532	-321.345288	596.012825	825.123148
